<?xml version="1.0" encoding="utf-8"?>
<!-- Generator: Adobe Illustrator 25.2.1, SVG Export Plug-In . SVG Version: 6.00 Build 0)  -->
<svg version="1.1" id="Layer_1" xmlns="http://www.w3.org/2000/svg" xmlns:xlink="http://www.w3.org/1999/xlink" x="0px" y="0px"
	 viewBox="0 0 340.9 340.9" style="enable-background:new 0 0 340.9 340.9;" xml:space="preserve">
<g>
	<path d="M337.7,3.3c-4.4-4.4-11.4-4.4-15.8,0l-51.6,51.6c-10.6-7.5-23.3-11.5-36.6-11.5c-17.1,0-33.1,6.6-45.1,18.7l-31.5,31.5
		c-2.1,2.1-3.3,4.9-3.3,7.9s1.2,5.8,3.3,7.9l74.5,74.5c2.2,2.2,5,3.3,7.9,3.3c2.9,0,5.7-1.1,7.9-3.3l31.5-31.5
		c22.2-22.2,24.5-56.8,7.1-81.7L337.7,19C342,14.7,342,7.6,337.7,3.3L337.7,3.3z M263.1,136.6l-23.6,23.6l-58.8-58.8l23.6-23.6
		c7.8-7.9,18.3-12.2,29.4-12.2c11.1,0,21.5,4.3,29.4,12.2C279.3,94,279.3,120.4,263.1,136.6L263.1,136.6z"/>
	<path d="M177.3,182.9l-24.4,24.4L133.6,188l24.4-24.4c4.4-4.4,4.4-11.4,0-15.8c-4.4-4.4-11.4-4.4-15.8,0l-24.4,24.4L106,160.4
		c-4.4-4.4-11.4-4.4-15.8,0l-31.5,31.5c-22.2,22.2-24.5,56.8-7.1,81.7L3.3,321.9c-4.4,4.4-4.4,11.4,0,15.8c2.2,2.2,5,3.3,7.9,3.3
		c2.9,0,5.7-1.1,7.9-3.3l48.3-48.3c10.6,7.5,23.3,11.5,36.5,11.5c17.1,0,33.1-6.6,45.1-18.7l31.5-31.5c4.4-4.4,4.4-11.4,0-15.8
		l-11.9-11.9l24.4-24.4c4.4-4.4,4.4-11.4,0-15.8C188.7,178.6,181.6,178.6,177.3,182.9L177.3,182.9z M133.3,266.4
		c-7.9,7.8-18.3,12.2-29.4,12.2s-21.5-4.3-29.4-12.2c-16.2-16.2-16.2-42.6,0-58.8l23.6-23.6l58.8,58.8L133.3,266.4z"/>
</g>
</svg>
