<?xml version="1.0" encoding="utf-8"?>
<!-- Generator: Adobe Illustrator 25.2.1, SVG Export Plug-In . SVG Version: 6.00 Build 0)  -->
<svg version="1.1" id="Layer_1" xmlns="http://www.w3.org/2000/svg" xmlns:xlink="http://www.w3.org/1999/xlink" x="0px" y="0px"
	 viewBox="0 0 532 532" style="enable-background:new 0 0 532 532;" xml:space="preserve">
<g>
	<path d="M266,0C119.3,0,0,119.3,0,266s119.3,266,266,266s266-119.3,266-266S412.7,0,266,0z M437.9,408.2l-90.7-90.7
		c-1.1,1.1-1.7,2.2-3.4,3.4c3.9,7.8,3.9,17.4,1.1,25.2c-2.2,5.6-5,12.3-9.5,19.6l72.2,72.8c-40.3,33-90.7,51.5-142.2,51.5
		C142.8,489.4,42.6,389.2,42.6,266c0-51.5,18.5-101.9,51.5-142.2l85.1,85.1c3.4-5.6,8.4-9.5,14-12.3c-1.1-11.2,0-22.4,2.2-30.8
		l-71.7-71.7c40.3-33.6,90.7-51.5,142.2-51.5c123.2,0,223.4,100.2,223.4,223.4C489.4,317.5,471.5,367.9,437.9,408.2L437.9,408.2z"/>
	<path d="M361.8,205.5c-9-2.8-30.8-8.4-49.8,0c-10.6,5-18.5,14.6-24.1,23l9-26.3c9.5-5.6,23.5-16.2,29.1-31.9
		c6.7-19.6-0.6-40.9-4.5-49.3c-1.1-2.2-3.9-3.4-5.6-2.2c-8.4,4.5-28,15.7-34.7,35.3c-5.6,15.7-1.7,32.5,2.2,43.1l-10.1,26.3
		c1.1-10.1,1.1-21.8-3.9-33c-9-18.5-29.1-28-38.1-31.4c-2.2-1.1-5,0.6-5.6,2.8c-2.8,9-8.4,30.8,0,49.8c9,18.5,29.1,28,38.1,31.4
		c0.6,0,1.1,0.6,1.7,0l-14.6,37.5c0.6-9-0.6-18.5-4.5-27.4c-9-18.5-29.1-28-38.1-31.4c-2.2-1.1-5,0.6-5.6,2.8
		c-2.8,9-8.4,30.8,0,49.8c9,18.5,29.1,28,38.1,31.4h0.6l-12.9,33c0-7.3-1.1-15.1-4.5-23c-9-18.5-29.1-28-38.1-31.4
		c-2.2-1.1-5,0.6-5.6,2.8c-2.8,9-8.4,30.8,0,49.8c8.4,17.9,28,27.4,37,31.4l-14,37c-1.1,2.8,0.6,6.2,3.4,6.7l13.4,5
		c2.8,1.1,5.6-0.6,6.7-3.4l12.3-37.5c9.5,2.8,30.8,7.8,48.7-0.6c18.5-9,28-29.1,31.4-38.1c1.1-2.2-0.6-5-2.8-5.6
		c-9-2.8-30.8-8.4-49.8,0c-7.3,3.4-13.4,9-17.9,14.6l11.2-33.6h0.6c9,2.8,30.8,8.4,49.8,0c18.5-9,28-29.1,31.4-38.1
		c1.1-2.2-0.6-5-2.8-5.6c-9-2.8-30.8-8.4-49.8,0c-9,4.5-15.7,11.2-20.7,17.9l12.9-38.1c0.6,0.6,1.1,0.6,1.7,1.1
		c9,2.8,30.8,8.4,49.8,0c18.5-9,28-29.1,31.4-38.1C365.1,208.9,364,206.6,361.8,205.5L361.8,205.5z"/>
</g>
</svg>
