<svg xmlns="http://www.w3.org/2000/svg" viewBox="0 0 512 512"><defs><style>.cls-1{fill:#2d2926;}</style></defs><g id="Artboard_3" data-name="Artboard 3"><path class="cls-1" d="M247.1,0h21.33Q376.75,6,446.78,84a6.36,6.36,0,0,1-.63,9.1l-27,23.1a5.46,5.46,0,0,1-7.45-.29q-52.62-54-120.95-65.31Q234.2,41.24,179,62.58q-69.85,27-106.78,94.66A206,206,0,0,0,49.7,221a198.69,198.69,0,0,0-.29,68.78q15,85.9,88.92,136.93,73.1,50.46,153.6,35.16Q370.22,447,420.44,386a4,4,0,0,1,5.63-.68L456.51,409a4.19,4.19,0,0,1,.57,6q-72.88,89-190.75,97H245Q120.13,502.9,48.73,405.67,6.46,348.22.89,278.7A261.2,261.2,0,0,1,16.13,166.8Q42.53,94.38,107,48,167.24,4.66,247.1,0Z"/><path class="cls-1" d="M398.43,365a2.9,2.9,0,0,1,.39,4.1,186.16,186.16,0,0,1-55.41,46.36Q313.2,432,275.83,436.11q-94.54,10.53-159.57-66.56-50.52-59.85-41.59-132,9.1-73.62,63.66-119.81A181.62,181.62,0,0,1,294.72,78.45q55.86,12,96.65,56a3,3,0,0,1,.06,4.27L362,163.21a6.36,6.36,0,0,1-8.25-.56q-24.12-21.85-50.29-32.37t-57.63-8q-74.52,6-111.1,74.3-15.82,29.58-11.84,70.65,4.73,49,35.27,80.84,29.07,30.27,73.28,39.37,68.94,14.28,127.37-43.69a8.79,8.79,0,0,1,11.61-.74Z"/></g></svg>