<svg id="Artboard_1" data-name="Artboard 1" xmlns="http://www.w3.org/2000/svg" viewBox="0 0 1751.35 179.04"><defs><style>.cls-1{fill:#2d2926;}</style></defs><g id="T"><path class="cls-1" d="M1751.35,1.76v13a1.76,1.76,0,0,1-1.77,1.75H1603a1.77,1.77,0,0,1-1.77-1.78l0-12.92A1.78,1.78,0,0,1,1603,0h146.56A1.76,1.76,0,0,1,1751.35,1.76Z"/><path class="cls-1" d="M1751.35,27.7v13a1.77,1.77,0,0,1-1.77,1.77h-49.79a2.16,2.16,0,0,0-2.15,2.18L1697.28,178a1.07,1.07,0,0,1-1,1.09h-13.89a1.21,1.21,0,0,1-1.15-1.25V27.7a1.78,1.78,0,0,1,1.77-1.78h66.58A1.78,1.78,0,0,1,1751.35,27.7Z"/><path class="cls-1" d="M1603,25.92h66.57a1.78,1.78,0,0,1,1.78,1.78V177.79a1.21,1.21,0,0,1-1.16,1.25H1656.3a1.08,1.08,0,0,1-1-1.09l-.35-133.28a2.16,2.16,0,0,0-2.15-2.18H1603a1.78,1.78,0,0,1-1.78-1.77v-13A1.78,1.78,0,0,1,1603,25.92Z"/></g><g id="O"><path class="cls-1" d="M1464,0h8q56.29,5.12,78.34,54.33a83.68,83.68,0,0,1,6.27,49.22,91.3,91.3,0,0,1-14.94,36.54Q1518,174.66,1472.23,179h-8.45q-52.37-4.46-76-49.24a83,83,0,0,1-9.46-34.25,91.47,91.47,0,0,1,4.53-34.48,87.17,87.17,0,0,1,32.41-44Q1436.15,1.9,1464,0ZM1541,89.54a73.07,73.07,0,1,0-73.07,73.07A73.06,73.06,0,0,0,1541,89.54Z"/><path class="cls-1" d="M1531.51,89.54a63.62,63.62,0,1,1-63.62-63.62A63.62,63.62,0,0,1,1531.51,89.54Zm-16.57,0a47.07,47.07,0,1,0-47.07,47.07A47.06,47.06,0,0,0,1514.94,89.56Z"/></g><g id="P"><path class="cls-1" d="M1236.73,132.61c.06,13.85,0,37.79,0,44.68A1.74,1.74,0,0,1,1235,179h-12.89a1.78,1.78,0,0,1-1.77-1.78V115.63a1,1,0,0,1,1-1c13.88-.11,27.94,0,41.83,0,2.91,0,8.33,0,11.19,0a48.83,48.83,0,0,0,28.85-9.43l.3-.22a48.93,48.93,0,0,0,13.67-15.25v0a48.68,48.68,0,0,0,.08-48.17l-.06-.1A48.59,48.59,0,0,0,1303.38,26l-.39-.28a48.67,48.67,0,0,0-28.59-9.26h-11.25c-13.74,0-32.18,0-45.93,0h-2.4a4,4,0,0,0-4,4V22.7c0,1.11,0,4.65,0,4.72.18,49.23,0,107.93,0,149.87a1.75,1.75,0,0,1-1.76,1.75h-13a1.76,1.76,0,0,1-1.76-1.76c.13-50,.11-102.79.06-152.12,0-6.92.9-10.2,2.69-13.62Q1203,.08,1218.21,0q29.91-.11,50.93.22,16.84.29,26.1,3.54,20.22,7.08,32.77,25.65A66.46,66.46,0,0,1,1339,58.21c1.32,9.88.47,15.65-2.57,25.75q-9.62,32-42.69,44.29-8.61,3.19-21.76,3.17-17.1-.06-34.2.16A1,1,0,0,0,1236.73,132.61Z"/><path class="cls-1" d="M1220.32,27.51a1.57,1.57,0,0,1,1.59-1.59c16.77,0,33.26,0,50,.16q27.38.2,38.17,23.33a36.61,36.61,0,0,1,2.29,26.52,40.7,40.7,0,0,1-13.91,20.81c-7.28,5.84-16.11,8.33-26.54,8.4h-50.58a1,1,0,0,1-1-1Zm71.46,27.72h0A22.7,22.7,0,0,0,1278.36,44a31.16,31.16,0,0,0-6.45-1.53h-34.22a1.11,1.11,0,0,0-1.1,1.12l.14,44.28a1.19,1.19,0,0,0,1.2,1.19h34a21.18,21.18,0,0,0,5.48-.87,22.54,22.54,0,0,0,14.07-11.44l.35-.67A22.69,22.69,0,0,0,1291.78,55.23Z"/></g><g id="S"><path class="cls-1" d="M1062.17,0h7a214.34,214.34,0,0,1,70.43,14.18,1,1,0,0,1,.67,1.3l-5.75,13A1.13,1.13,0,0,1,1133,29a194.48,194.48,0,0,0-46.81-11.38q-20.75-2.38-34.41-1.08A82.67,82.67,0,0,0,1018.41,27a29.86,29.86,0,0,0-11.6,12.09,36.83,36.83,0,0,0-4.28,15.62q-.67,13.25,8.36,21.68,5.85,5.43,19.37,9.51a193.36,193.36,0,0,0,43.21,7.8,81.45,81.45,0,0,1,30.74,7.9,23,23,0,0,1,11.37,11.49,25.79,25.79,0,0,1,1.72,15.1q-2,11.9-14,18a60.82,60.82,0,0,1-21.38,6.24,172.12,172.12,0,0,1-90.34-14.74.88.88,0,0,1-.42-1.19l6.11-12.63a2.48,2.48,0,0,1,3.24-1.2q42.18,19.27,87.41,12.66a18.91,18.91,0,0,0,7.62-3.13,11,11,0,0,0,4.76-6.22q1.8-6.63-4-10.93-5.16-3.75-14.82-5-18.66-2.4-37.3-4.93-21.33-2.9-37.16-11.68a38.63,38.63,0,0,1-17.11-18.56A46.78,46.78,0,0,1,986.46,51q2.32-23.47,23.49-36.47Q1032.77.55,1062.17,0Z"/><path class="cls-1" d="M1076.85,179H1049a191.26,191.26,0,0,1-66.48-18.58,1.26,1.26,0,0,1-.7-1.41,42.33,42.33,0,0,1,5.33-12.12,1.76,1.76,0,0,1,2.21-.69A189.76,189.76,0,0,0,1066.53,163a87.46,87.46,0,0,0,41.6-10.15q20-10.5,19.23-30.4a30,30,0,0,0-8.09-20A40.78,40.78,0,0,0,1099.35,91q-10.68-2.81-19.14-4.41-2.88-.57-19.49-2.27A140.53,140.53,0,0,1,1024.87,76a18.56,18.56,0,0,1-9.77-8.17,22.32,22.32,0,0,1-2.56-11.74q.44-22.86,24.63-28.83A111.29,111.29,0,0,1,1064,24a177.63,177.63,0,0,1,64.75,12.32,1.94,1.94,0,0,1,1.14,2.6l-5.43,11.66a1.76,1.76,0,0,1-2.25.85,173.89,173.89,0,0,0-66.66-11.18,62.7,62.7,0,0,0-16.41,2.49A13.28,13.28,0,0,0,1030.6,51q-1.93,4.72.22,8.29c1,1.66,3,3.06,6.07,4.2a98.65,98.65,0,0,0,25.7,5.83l10.84,1a215.48,215.48,0,0,1,33.38,6.83,65.15,65.15,0,0,1,13.89,6,48.27,48.27,0,0,1,11.87,9.24A43.62,43.62,0,0,1,1144,116.42a47.68,47.68,0,0,1-3.44,25.26q-6.83,16.33-23.37,25.3A105.58,105.58,0,0,1,1076.85,179Z"/></g><g id="K"><rect class="cls-1" x="649.25" width="16.43" height="179.04" rx="1.76"/><rect class="cls-1" x="675.09" width="16.43" height="179.04" rx="1.76"/><path class="cls-1" d="M778,178.2,713.05,91.87a2.64,2.64,0,0,1,0-3.2L777,1.79c.91-1.19.61-1.79-.9-1.79H758.57a2.22,2.22,0,0,0-1.76.86c-18.63,24.29-37.41,52.55-55.74,76.82q-6,7.91-4.3,16.32,1,4.78,7.56,13.66c16.7,22.47,35.18,47.16,52.51,70.09a3.28,3.28,0,0,0,2.61,1.29h18.1C778.26,179,778.39,178.76,778,178.2Z"/><path class="cls-1" d="M746.45,91.59a2.24,2.24,0,0,1,0-2.66L810.56,1.79c.91-1.19.62-1.79-.9-1.79H792.18a2.18,2.18,0,0,0-1.75.86C771.79,25.15,753,53.41,734.68,77.68c-2.78,3.69-6.26,8.57-8.1,11.17a3,3,0,0,0,0,3.58l11.32,15.23C754.5,130,772.82,154.41,790,177.18a4.67,4.67,0,0,0,3.74,1.86h17.39q1.07,0,.42-.84Z"/></g><g id="O-2" data-name="O"><path class="cls-1" d="M507.65,0h7.46q49.36,4.1,73.36,44.38,16.13,27.1,11.4,57.61a92.33,92.33,0,0,1-14.24,36.79Q562.2,174.54,515.37,179h-8q-38.43-2.52-63.16-29.72a86.23,86.23,0,0,1-18.18-31.11,90.49,90.49,0,0,1-4.3-35q2.87-43.72,40.88-68.91Q482,1.49,507.65,0Zm76.47,89.52A73.09,73.09,0,1,0,511,162.61,73.1,73.1,0,0,0,584.12,89.52Z"/><path class="cls-1" d="M574.67,89.52A63.62,63.62,0,1,1,511.05,25.9,63.63,63.63,0,0,1,574.67,89.52Zm-16.59,0A47.07,47.07,0,1,0,511,136.61,47.06,47.06,0,0,0,558.08,89.54Z"/></g><g id="O-3" data-name="O"><path class="cls-1" d="M286.33,0h8q56.29,5.12,78.34,54.33a83.68,83.68,0,0,1,6.27,49.22A91.3,91.3,0,0,1,364,140.09Q340.31,174.66,294.55,179H286.1q-52.37-4.46-76-49.24a83.17,83.17,0,0,1-9.47-34.25,91.68,91.68,0,0,1,4.54-34.48A87.12,87.12,0,0,1,237.6,17Q258.46,1.9,286.33,0Zm76.95,89.54a73.07,73.07,0,1,0-73.07,73.07A73.06,73.06,0,0,0,363.28,89.54Z"/><path class="cls-1" d="M353.83,89.54a63.62,63.62,0,1,1-63.62-63.62A63.62,63.62,0,0,1,353.83,89.54Zm-16.57,0a47.07,47.07,0,1,0-47.07,47.07A47.06,47.06,0,0,0,337.26,89.56Z"/></g><g id="C"><path class="cls-1" d="M86.41,0h7.46q37.88,2.11,62.36,29.36a2.23,2.23,0,0,1-.22,3.19l-9.45,8.07a1.89,1.89,0,0,1-2.6-.1q-18.41-18.9-42.29-22.83A73.37,73.37,0,0,0,62.6,21.88Q38.17,31.32,25.26,55a71.72,71.72,0,0,0-7.88,22.3,69.41,69.41,0,0,0-.1,24q5.25,30,31.09,47.88,25.56,17.64,53.71,12.29A74.56,74.56,0,0,0,147,135a1.42,1.42,0,0,1,2-.24L159.63,143a1.46,1.46,0,0,1,.2,2.09Q134.35,176.23,93.13,179H85.67Q42,175.86,17,141.86A85.17,85.17,0,0,1,.31,97.46,91.29,91.29,0,0,1,5.64,58.33,86.86,86.86,0,0,1,37.43,16.79Q58.48,1.64,86.41,0Z"/><path class="cls-1" d="M139.32,127.64a1,1,0,0,1,.14,1.43,65.13,65.13,0,0,1-19.37,16.21,63.39,63.39,0,0,1-23.64,7.22q-33.06,3.69-55.8-23.27Q23,108.31,26.11,83.06q3.18-25.76,22.26-41.9a63.52,63.52,0,0,1,54.69-13.73A63.51,63.51,0,0,1,136.86,47a1.06,1.06,0,0,1,0,1.49l-10.29,8.57a2.22,2.22,0,0,1-2.88-.19,59.13,59.13,0,0,0-17.59-11.32A44.09,44.09,0,0,0,86,42.77q-26.06,2.08-38.85,26Q41.59,79.1,43,93.46q1.65,17.13,12.33,28.27a48,48,0,0,0,25.63,13.76q24.11,5,44.54-15.27a3.06,3.06,0,0,1,4.06-.26Z"/></g></svg>