<?xml version="1.0" encoding="utf-8"?>
<!-- Generator: Adobe Illustrator 25.2.1, SVG Export Plug-In . SVG Version: 6.00 Build 0)  -->
<svg version="1.1" id="Layer_1" xmlns="http://www.w3.org/2000/svg" xmlns:xlink="http://www.w3.org/1999/xlink" x="0px" y="0px"
	 viewBox="0 0 560 560" style="enable-background:new 0 0 560 560;" xml:space="preserve">
<style type="text/css">
	.st0{fill-rule:evenodd;clip-rule:evenodd;fill:#2D2926;}
</style>
<path class="st0" d="M280,0C205.7,0,134.5,29.5,82,82S0,205.7,0,280s29.5,145.5,82,198s123.7,82,198,82s145.5-29.5,198-82
	s82-123.7,82-198c0-49.1-12.9-97.4-37.5-140C497.9,97.4,462.6,62.1,420,37.5S329.2,0,280,0L280,0z M418.5,86.5
	c-45.8-32.7-101.8-48-157.9-43.4c-56.1,4.7-108.7,29.1-148.5,68.9s-64.2,92.4-68.9,148.5s10.7,112,43.4,157.9l34-34l7.7,15.3l0,0
	c5.2,10.4,13.2,19.1,23.1,25.2c9.9,6.1,21.3,9.2,32.9,9.1h6.2l-43.1,43.1l0,0c45.8,30.9,100.9,44.9,155.9,39.6
	s106.4-29.6,145.5-68.6c39.1-39.1,63.3-90.5,68.6-145.5s-8.7-110.1-39.6-155.9l-56,56c-3.1-2.1-6.4-3.9-9.8-5.3
	c-5.7-2.2-11.5-4.1-17.4-5.7c-3.2-6.1-7.1-11.8-11.6-17.1c-5.1-6.5-13.4-9.7-21.6-8.5c-6.5,2.2-12.6,5.3-18.2,9.2l-8.7-4.1l85-85
	L418.5,86.5z M136.1,350l8.4,20.9l0,0c4.1,10.3,11.2,19.1,20.4,25.4s20,9.6,31.1,9.7h168c11.2,0,22.1-3.4,31.4-9.6
	c9.3-6.3,16.4-15.2,20.6-25.5l8.4-20.9h6.6c12.5,0,24.1-6.7,30.3-17.5c6.3-10.8,6.3-24.2,0-35c-6.2-10.8-17.8-17.5-30.3-17.5H129.5
	c-9.3,0-18.2,3.7-24.8,10.2c-6.6,6.6-10.2,15.5-10.2,24.8s3.7,18.2,10.2,24.8c6.6,6.6,15.5,10.2,24.8,10.2H136.1z M128.4,252H434
	c-0.8-6.3-3.3-12.2-7.3-17.1c-4-4-8.7-7.2-14-9.2c-5.7-2.2-11.6-4.1-17.5-5.7c-3.1-6.1-7-11.9-11.5-17.1c-5.2-6.5-13.5-9.8-21.7-8.5
	c-6.4,2.2-12.5,5.3-18.1,9.2c-3.9-2-9-4.3-14-6.2c-5.1-2-10.5-3.1-16-3.4c-5.5,0.2-10.9,1.4-16,3.4c-3.2,1.2-6.4,2.6-9.5,4.2
	c-2-2.6-4.2-5.1-6.6-7.3c-7.9-7.9-18.7-12.4-30-12.3c-7.1,0.6-13.9,3.4-19.5,8c-4.3,3.2-8.4,6.8-12.2,10.6c-5.7-4-12.5-6.3-19.5-6.6
	c-7.4,0.5-14.3,4-19.2,9.7c-3.2,3.7-6.1,7.7-8.5,12c-4.6-0.9-9.3-1.3-14-1.3c-7.4,0-14.5,3-19.6,8.4c-4.8,6.4-8.1,13.7-9.7,21.6
	C129.9,247,128.8,249.5,128.4,252L128.4,252z"/>
</svg>
